<?xml version="1.0" encoding="utf-8"?>
<!-- Generator: Adobe Illustrator 25.4.1, SVG Export Plug-In . SVG Version: 6.00 Build 0)  -->
<svg version="1.1" id="Layer_1" xmlns="http://www.w3.org/2000/svg" xmlns:xlink="http://www.w3.org/1999/xlink" x="0px" y="0px"
	 viewBox="0 0 537.73 322.59" style="enable-background:new 0 0 537.73 322.59;" xml:space="preserve">
<style type="text/css">
	.st0{fill:#EAEAF0;}
</style>
<g>
	<g>
		<path d="M339.94,239.62c0.44,2.32,1.92,3.64,4.52,3.64c3.28,0,4.72-2.44,4.72-9c-1.24,1.72-3.6,2.72-6.16,2.72
			c-5.04,0-9.08-3.16-9.08-9.32c0-5.84,3.68-9.68,9.84-9.68c7.92,0,10.36,5.36,10.36,14.6c0,9.92-2.2,15.28-9.92,15.28
			c-6.2,0-9.16-3.96-9.48-8.24H339.94z M348.66,227.7c0-3.2-1.84-4.96-4.68-4.96c-2.92,0-4.68,1.96-4.68,4.88
			c0,2.64,1.48,4.8,4.88,4.8C346.98,232.42,348.66,230.54,348.66,227.7z"/>
	</g>
	<g>
		<path d="M374.82,8.25v4.16l-10.64,24.92h-5.68l10.72-24.28h-13.68v-4.8H374.82z"/>
	</g>
	<g>
		<path d="M34.49,260.97h-14v-4.4l13.08-18.72h6.52v18.24h3.52v4.88h-3.52v5.68h-5.6V260.97z M34.85,256.09v-12.24l-8.2,12.24H34.85
			z"/>
	</g>
	<g>
		<path d="M84.05,42.75v4.92H71.09v6.84c1.08-1.32,3.28-2.36,5.72-2.36c6.8,0,9.12,5.12,9.12,9.64c0,5.96-3.44,10.2-10.08,10.2
			c-6.28,0-9.88-3.48-10.36-8.24h5.44c0.48,2.04,2.12,3.52,4.84,3.52c3.28,0,4.76-2.32,4.76-5.4c0-3.28-1.64-5.08-4.8-5.08
			c-2.32,0-3.8,1.28-4.4,3.08h-5.36V42.75H84.05z"/>
	</g>
	<g>
		<polygon class="st0" points="114.56,313.04 6.51,145.46 186.88,17.13 525.57,99.16 		"/>
		<path d="M113.52,316.97L2.44,144.68L186.26,13.9l347.8,84.23L113.52,316.97z M10.59,146.25L115.6,309.12l401.49-208.93
			L187.51,20.37L10.59,146.25z"/>
	</g>
</g>
</svg>
